<svg width="468" height="467" viewBox="0 0 468 467" fill="none" xmlns="http://www.w3.org/2000/svg">
<path d="M222.578 456.488L222.354 458.978L204.97 457.413L205.194 454.923L212.482 455.579L214.344 434.89L217.151 435.142L215.289 455.832L222.578 456.488Z" fill="white"/>
<path d="M197.819 432.823L192.668 455.518L189.92 454.895L192.213 444.788L180.112 442.041L177.818 452.148L175.07 451.524L180.221 428.829L182.969 429.452L180.665 439.603L192.767 442.35L195.071 432.199L197.819 432.823Z" fill="white"/>
<path d="M159.993 446.723L167.479 424.687L170.148 425.594L162.662 447.63L159.993 446.723Z" fill="white"/>
<path d="M138.507 431.67C138.157 432.776 138.292 433.818 138.914 434.797C139.535 435.776 140.488 436.556 141.772 437.137C142.711 437.561 143.601 437.781 144.442 437.795C145.277 437.807 146.011 437.635 146.645 437.282C147.272 436.925 147.738 436.408 148.044 435.732C148.3 435.166 148.385 434.618 148.3 434.089C148.205 433.564 148.004 433.07 147.698 432.607C147.388 432.151 147.038 431.731 146.647 431.346C146.252 430.969 145.881 430.639 145.535 430.357L143.643 428.804C143.156 428.409 142.632 427.932 142.071 427.37C141.503 426.806 141.009 426.162 140.587 425.44C140.155 424.721 139.89 423.928 139.792 423.06C139.694 422.193 139.869 421.262 140.319 420.268C140.837 419.122 141.605 418.222 142.624 417.569C143.635 416.912 144.838 416.57 146.23 416.543C147.616 416.512 149.123 416.865 150.752 417.601C152.271 418.288 153.475 419.127 154.365 420.12C155.248 421.109 155.809 422.186 156.048 423.35C156.28 424.51 156.175 425.689 155.733 426.887L153.083 425.688C153.375 424.856 153.406 424.072 153.174 423.335C152.931 422.602 152.505 421.944 151.896 421.361C151.277 420.782 150.546 420.302 149.704 419.921C148.723 419.478 147.771 419.239 146.848 419.204C145.921 419.176 145.1 419.345 144.386 419.712C143.668 420.086 143.134 420.659 142.785 421.433C142.467 422.137 142.404 422.799 142.598 423.418C142.792 424.038 143.147 424.631 143.665 425.197C144.182 425.764 144.766 426.319 145.418 426.863L147.691 428.788C149.132 430.013 150.137 431.286 150.704 432.607C151.271 433.927 151.231 435.302 150.585 436.731C150.049 437.918 149.259 438.809 148.218 439.402C147.167 439.999 145.985 440.296 144.672 440.293C143.35 440.294 142.013 439.989 140.659 439.377C139.293 438.759 138.188 437.965 137.347 436.995C136.502 436.031 135.96 434.987 135.719 433.864C135.471 432.738 135.572 431.632 136.021 430.547L138.507 431.67Z" fill="white"/>
<path d="M107.255 420.361L120.193 401.017L122.536 402.583L109.597 421.928L107.255 420.361Z" fill="white"/>
<path d="M90.4005 400.257C89.7761 401.234 89.6372 402.276 89.9838 403.383C90.3305 404.49 91.0487 405.49 92.1386 406.383C92.9355 407.036 93.7384 407.478 94.5473 407.71C95.3504 407.938 96.1038 407.962 96.8076 407.785C97.5055 407.603 98.0897 407.224 98.5603 406.65C98.9541 406.17 99.1783 405.663 99.2331 405.13C99.2773 404.598 99.2113 404.069 99.0353 403.543C98.8545 403.022 98.6249 402.526 98.3465 402.053C98.0633 401.585 97.7908 401.171 97.5288 400.81L96.104 398.819C95.7361 398.312 95.3539 397.715 94.9573 397.027C94.5549 396.335 94.2437 395.585 94.0237 394.778C93.793 393.972 93.7425 393.137 93.8722 392.274C94.0019 391.41 94.4125 390.557 95.1039 389.713C95.9011 388.74 96.8763 388.07 98.0295 387.703C99.1769 387.331 100.427 387.312 101.779 387.646C103.125 387.975 104.489 388.707 105.872 389.84C107.161 390.897 108.107 392.019 108.709 393.208C109.306 394.393 109.569 395.578 109.498 396.764C109.421 397.945 109.015 399.057 108.278 400.099L106.028 398.255C106.527 397.527 106.759 396.777 106.726 396.005C106.682 395.234 106.441 394.489 106.003 393.768C105.555 393.048 104.973 392.395 104.259 391.809C103.427 391.127 102.569 390.65 101.686 390.376C100.798 390.109 99.9617 390.06 99.1764 390.23C98.3863 390.405 97.7223 390.821 97.1845 391.477C96.6947 392.075 96.4632 392.698 96.4898 393.347C96.5165 393.995 96.7062 394.66 97.0591 395.341C97.4119 396.022 97.8327 396.71 98.3215 397.404L100.018 399.852C101.093 401.409 101.733 402.898 101.939 404.321C102.144 405.743 101.75 407.061 100.756 408.273C99.9302 409.281 98.9374 409.937 97.7778 410.24C96.6076 410.545 95.3891 410.526 94.1224 410.183C92.845 409.841 91.6321 409.2 90.4836 408.259C89.3234 407.308 88.4626 406.255 87.9012 405.099C87.335 403.95 87.0812 402.801 87.1397 401.654C87.1923 400.502 87.5761 399.46 88.2911 398.528L90.4005 400.257Z" fill="white"/>
<path d="M60.9111 369.495C60.11 370.333 59.7727 371.329 59.8994 372.482C60.026 373.635 60.538 374.754 61.4351 375.841C62.0911 376.635 62.7936 377.224 63.5426 377.608C64.2868 377.986 65.0213 378.156 65.746 378.117C66.4659 378.073 67.1122 377.814 67.6847 377.342C68.1637 376.946 68.4815 376.492 68.6381 375.98C68.784 375.466 68.8213 374.935 68.7501 374.384C68.673 373.839 68.5435 373.307 68.3616 372.789C68.1738 372.276 67.9863 371.817 67.799 371.412L66.7848 369.184C66.5216 368.615 66.2618 367.956 66.0052 367.205C65.7439 366.448 65.5831 365.652 65.5229 364.818C65.452 363.982 65.5634 363.153 65.8572 362.331C66.151 361.509 66.7185 360.751 67.5597 360.056C68.5294 359.255 69.6155 358.786 70.818 358.648C72.0156 358.504 73.2455 358.726 74.5077 359.315C75.765 359.898 76.9629 360.879 78.1012 362.257C79.1623 363.543 79.8738 364.827 80.2356 366.11C80.5925 367.387 80.6219 368.601 80.3237 369.751C80.0207 370.895 79.4075 371.907 78.4839 372.787L76.6317 370.544C77.2612 369.926 77.6339 369.235 77.7499 368.472C77.8552 367.707 77.7627 366.928 77.4724 366.136C77.1715 365.344 76.7268 364.591 76.1383 363.878C75.4534 363.049 74.7041 362.415 73.8903 361.976C73.0707 361.543 72.2593 361.334 71.4561 361.348C70.647 361.368 69.9153 361.648 69.261 362.188C68.6652 362.68 68.3178 363.247 68.2188 363.889C68.1199 364.53 68.1778 365.219 68.3927 365.955C68.6076 366.692 68.8879 367.448 69.2336 368.223L70.4258 370.952C71.1804 372.687 71.5214 374.272 71.4489 375.708C71.3764 377.143 70.7355 378.36 69.5262 379.358C68.5214 380.188 67.4209 380.64 66.2245 380.714C65.0175 380.787 63.8256 380.533 62.6487 379.952C61.4612 379.371 60.3948 378.507 59.4494 377.362C58.4944 376.206 57.8529 375.006 57.5248 373.764C57.191 372.527 57.1633 371.351 57.442 370.237C57.7157 369.117 58.2933 368.169 59.1747 367.392L60.9111 369.495Z" fill="white"/>
<path d="M66.679 348.159L46.9211 360.457L45.4319 358.064L54.2303 352.588L47.6729 342.053L38.8745 347.529L37.3852 345.137L57.1432 332.838L58.6324 335.231L49.7954 340.732L56.3528 351.267L65.1898 345.766L66.679 348.159Z" fill="white"/>
<path d="M51.8773 322.702L53.0845 325.398L28.3515 327.108L27.1629 324.453L44.9128 307.144L46.12 309.841L31.0805 324.193L31.1548 324.359L51.8773 322.702ZM43.1342 325.42L38.2683 314.551L40.5501 313.529L45.416 324.399L43.1342 325.42Z" fill="white"/>
<path d="M15.3797 291.022L14.5872 288.318L29.3745 283.985C30.9012 283.537 32.3698 283.498 33.7802 283.866C35.1813 284.229 36.4178 284.96 37.4898 286.059C38.5545 287.16 39.3436 288.587 39.857 290.339C40.3704 292.091 40.4761 293.718 40.1741 295.219C39.8647 296.723 39.2194 298.009 38.238 299.079C37.2472 300.143 35.9885 300.898 34.4618 301.346L19.6745 305.679L18.882 302.974L33.4512 298.705C34.5417 298.385 35.4419 297.861 36.1519 297.132C36.8546 296.405 37.3196 295.527 37.5468 294.497C37.7646 293.462 37.6913 292.323 37.327 291.08C36.9628 289.837 36.4097 288.839 35.6678 288.085C34.9187 287.333 34.0532 286.845 33.0714 286.62C32.0802 286.389 31.0394 286.434 29.9489 286.753L15.3797 291.022Z" fill="white"/>
<path d="M34.7409 271.571L11.7352 275.086L11.3095 272.3L22.7225 270.557L22.6813 270.287L9.6892 261.696L9.13308 258.057L20.9887 266.131L32.1388 254.541L32.6537 257.911L23.1817 267.544L26.8563 269.925L34.3152 268.785L34.7409 271.571Z" fill="white"/>
<path d="M8.25981 244.583L31.4979 243.314L31.6516 246.128L8.41357 247.397L8.25981 244.583Z" fill="white"/>
<path d="M31.138 231.545L31.0055 234.497L8.13956 224.916L8.27007 222.009L31.9027 214.517L31.7702 217.468L11.887 223.537L11.8789 223.719L31.138 231.545ZM22.1052 230.047L22.6395 218.15L25.137 218.262L24.6027 230.159L22.1052 230.047Z" fill="white"/>
<path d="M26.6174 180.535L29.0533 181.098L26.7636 191.019L24.3277 190.456L26.6174 180.535Z" fill="white"/>
<path d="M44.7034 160.46L23.3257 151.262L26.4338 144.038C27.1555 142.361 28.0481 141.121 29.1116 140.316C30.1712 139.502 31.3233 139.058 32.5678 138.983C33.8124 138.908 35.0644 139.142 36.324 139.684C37.5835 140.226 38.6175 140.976 39.4258 141.934C40.2371 142.885 40.7199 144.025 40.8742 145.353C41.0215 146.678 40.7373 148.172 40.0216 149.836L37.7938 155.013L35.4974 154.025L37.6893 148.931C38.1833 147.783 38.3818 146.775 38.2845 145.909C38.1873 145.042 37.8686 144.307 37.3283 143.704C36.7841 143.09 36.084 142.599 35.228 142.231C34.3721 141.862 33.5378 141.693 32.725 141.723C31.9152 141.746 31.1678 142.026 30.4826 142.564C29.7905 143.099 29.1944 143.948 28.6943 145.11L26.736 149.661L45.8173 157.872L44.7034 160.46Z" fill="white"/>
<path d="M55.4571 114.429C57.5596 115.696 59.1479 117.17 60.222 118.852C61.2961 120.533 61.8497 122.286 61.8828 124.111C61.9159 125.935 61.4204 127.697 60.3962 129.397C59.372 131.097 58.0458 132.359 56.4177 133.183C54.7896 134.006 52.9811 134.336 50.9923 134.173C49.0035 134.009 46.9578 133.294 44.8553 132.028C42.7528 130.761 41.1645 129.287 40.0904 127.605C39.0163 125.923 38.4627 124.17 38.4296 122.346C38.3964 120.522 38.892 118.76 39.9162 117.06C40.9404 115.36 42.2666 114.098 43.8947 113.274C45.5228 112.451 47.3312 112.121 49.3201 112.284C51.3089 112.448 53.3546 113.162 55.4571 114.429ZM54.0498 116.765C52.3236 115.725 50.6929 115.136 49.1574 114.999C47.6259 114.854 46.26 115.088 45.0597 115.701C43.8633 116.307 42.9016 117.213 42.1744 118.42C41.4473 119.627 41.0936 120.904 41.1133 122.252C41.1369 123.592 41.5685 124.909 42.4081 126.202C43.2516 127.489 44.5365 128.652 46.2626 129.692C47.9887 130.732 49.6176 131.324 51.1491 131.468C52.6846 131.606 54.0505 131.372 55.2468 130.766C56.4471 130.154 57.4108 129.244 58.1379 128.037C58.8651 126.83 59.2168 125.556 59.1932 124.215C59.1735 122.868 58.7419 121.551 57.8984 120.264C57.0588 118.971 55.7759 117.805 54.0498 116.765Z" fill="white"/>
<path d="M71.2123 112.424L53.0875 97.8258L58.0202 91.7016C59.1607 90.2856 60.3387 89.3181 61.5544 88.7992C62.7641 88.2755 63.9637 88.1328 65.1531 88.371C66.3426 88.6092 67.4712 89.1583 68.5391 90.0185C69.607 90.8786 70.3782 91.8596 70.8525 92.9615C71.3268 94.0634 71.4365 95.2558 71.1814 96.5386C70.9204 97.8167 70.2245 99.1579 69.0935 100.562L65.1017 105.518L63.1193 103.921L67.054 99.0362C67.8334 98.0686 68.3191 97.1758 68.5111 96.3577C68.7078 95.5337 68.6535 94.7798 68.3482 94.0961C68.0417 93.4018 67.5256 92.7624 66.7999 92.1779C66.0742 91.5934 65.3306 91.2182 64.5692 91.0524C63.8078 90.8866 63.0397 90.9829 62.2647 91.3412C61.4838 91.6947 60.699 92.3612 59.9101 93.3406L56.8023 97.1992L72.9801 110.229L71.2123 112.424ZM69.9418 97.3349L81.6764 99.4324L79.6235 101.981L67.9459 99.8129L69.9418 97.3349Z" fill="white"/>
<path d="M72.3976 78.8676L70.6634 77.0669L83.2355 64.9588L84.9697 66.7595L79.6986 71.8361L94.1084 86.7981L92.0786 88.7531L77.6687 73.791L72.3976 78.8676Z" fill="white"/>
<path d="M106.591 75.7186L92.5938 57.1256L103.742 48.7328L105.246 50.7301L96.3489 57.428L101.078 63.7104L109.14 57.6413L110.644 59.6386L102.582 65.7077L108.842 74.0237L106.591 75.7186Z" fill="white"/>
<path d="M137.038 42.1557C138.245 44.2928 138.903 46.3576 139.011 48.3502C139.119 50.3428 138.738 52.1414 137.87 53.7459C137.001 55.3504 135.703 56.6408 133.975 57.6172C132.247 58.5936 130.471 59.0398 128.649 58.9558C126.826 58.8718 125.089 58.2695 123.438 57.149C121.787 56.0284 120.358 54.3996 119.15 52.2626C117.943 50.1256 117.285 48.0608 117.177 46.0681C117.07 44.0755 117.45 42.277 118.318 40.6724C119.187 39.0679 120.485 37.7775 122.213 36.8011C123.941 35.8247 125.717 35.3785 127.539 35.4625C129.362 35.5465 131.099 36.1488 132.75 37.2694C134.401 38.3899 135.83 40.0187 137.038 42.1557ZM134.663 43.4974C133.672 41.7429 132.542 40.428 131.273 39.5527C130.011 38.6736 128.706 38.2054 127.36 38.1481C126.02 38.0872 124.737 38.4032 123.51 39.0964C122.283 39.7896 121.347 40.7275 120.702 41.9103C120.062 43.0893 119.79 44.4481 119.885 45.9868C119.987 47.5218 120.533 49.1665 121.525 50.921C122.516 52.6754 123.643 53.9922 124.905 54.8713C126.174 55.7466 127.479 56.2148 128.818 56.2758C130.165 56.333 131.451 56.0151 132.678 55.3219C133.905 54.6288 134.838 53.6927 135.477 52.5137C136.122 51.3309 136.394 49.9721 136.293 48.4371C136.198 46.8984 135.655 45.2518 134.663 43.4974Z" fill="white"/>
<path d="M151.785 48.1974L143.029 26.6346L145.64 25.5743L153.456 44.8207L163.479 40.7506L164.419 43.0669L151.785 48.1974Z" fill="white"/>
<path d="M168.929 17.2081L175.717 39.4689L173.021 40.2909L166.233 18.03L168.929 17.2081Z" fill="white"/>
<path d="M203.18 21.3117C203.642 23.7225 203.606 25.8892 203.071 27.8119C202.537 29.7346 201.602 31.3175 200.267 32.5605C198.931 33.8036 197.289 34.6118 195.339 34.9852C193.39 35.3585 191.565 35.2143 189.865 34.5527C188.165 33.891 186.711 32.7655 185.504 31.1762C184.297 29.587 183.463 27.587 183.001 25.1763C182.54 22.7655 182.576 20.5988 183.11 18.6761C183.644 16.7535 184.579 15.1706 185.915 13.9275C187.25 12.6844 188.893 11.8762 190.842 11.5028C192.792 11.1295 194.616 11.2737 196.317 11.9354C198.017 12.5971 199.47 13.7225 200.677 15.3118C201.884 16.901 202.718 18.901 203.18 21.3117ZM200.502 21.8247C200.122 19.8456 199.471 18.2386 198.548 17.0038C197.633 15.7676 196.546 14.9073 195.289 14.4231C194.039 13.9374 192.722 13.8271 191.338 14.0922C189.954 14.3572 188.767 14.947 187.778 15.8616C186.796 16.7748 186.104 17.9755 185.702 19.464C185.308 20.951 185.301 22.6841 185.68 24.6633C186.059 26.6425 186.706 28.2502 187.622 29.4864C188.545 30.7212 189.631 31.5814 190.881 32.0671C192.139 32.5513 193.46 32.6609 194.843 32.3959C196.227 32.1308 197.41 31.5417 198.393 30.6286C199.382 29.714 200.074 28.5132 200.468 27.0262C200.869 25.5377 200.881 23.8039 200.502 21.8247Z" fill="white"/>
<path d="M238.618 19.7727V22.2727L228.436 22.2727V19.7727L238.618 19.7727Z" fill="white"/>
<path d="M264.703 12.215L265.15 9.75514L282.324 12.8718L281.877 15.3316L274.677 14.0249L270.968 34.4638L268.195 33.9606L271.904 13.5217L264.703 12.215Z" fill="white"/>
<path d="M287.241 38.004L294.406 15.8616L297.087 16.7292L293.897 26.5895L305.703 30.4098L308.894 20.5495L311.575 21.4171L304.41 43.5595L301.729 42.6919L304.933 32.7884L293.127 28.9681L289.922 38.8716L287.241 38.004Z" fill="white"/>
<path d="M326.161 27.5506L316.729 48.8265L314.153 47.6844L323.584 26.4085L326.161 27.5506Z" fill="white"/>
<path d="M346.211 44.4691C346.659 43.3995 346.617 42.3492 346.086 41.3181C345.555 40.287 344.676 39.4249 343.449 38.7317C342.552 38.2249 341.685 37.9265 340.848 37.8366C340.018 37.7504 339.272 37.8551 338.609 38.1505C337.952 38.4497 337.442 38.9225 337.076 39.5689C336.771 40.1097 336.637 40.6474 336.674 41.1819C336.722 41.7135 336.877 42.2235 337.141 42.7117C337.408 43.1934 337.72 43.6434 338.075 44.0617C338.434 44.4735 338.774 44.835 339.094 45.1464L340.838 46.8631C341.288 47.2998 341.767 47.8227 342.275 48.432C342.79 49.045 343.226 49.7302 343.581 50.4878C343.946 51.2424 344.139 52.0562 344.159 52.929C344.179 53.8019 343.921 54.7132 343.384 55.663C342.766 56.7579 341.92 57.5851 340.847 58.1447C339.78 58.7081 338.552 58.941 337.163 58.8434C335.78 58.7495 334.31 58.2629 332.754 57.3834C331.303 56.5635 330.179 55.6194 329.381 54.5511C328.591 53.4865 328.128 52.364 327.995 51.1835C327.868 50.0067 328.078 48.8419 328.625 47.6891L331.158 49.1201C330.791 49.9225 330.691 50.701 330.856 51.4557C331.032 52.2076 331.397 52.9011 331.951 53.5365C332.516 54.169 333.201 54.7125 334.006 55.1672C334.943 55.6964 335.869 56.0198 336.786 56.1376C337.706 56.2487 338.539 56.1535 339.284 55.852C340.032 55.5439 340.615 55.0205 341.032 54.2818C341.412 53.609 341.534 52.9554 341.396 52.3208C341.259 51.6863 340.958 51.0638 340.494 50.4534C340.029 49.843 339.497 49.2376 338.896 48.6372L336.806 46.5162C335.48 45.1667 334.594 43.8089 334.147 42.4429C333.701 41.0769 333.863 39.7113 334.635 38.346C335.276 37.2115 336.142 36.3954 337.232 35.8978C338.333 35.3972 339.536 35.2072 340.843 35.3277C342.16 35.4454 343.465 35.8694 344.758 36.5999C346.064 37.3378 347.092 38.2278 347.844 39.27C348.598 40.3056 349.045 41.3935 349.184 42.5336C349.33 43.6774 349.13 44.7698 348.586 45.8107L346.211 44.4691Z" fill="white"/>
<path d="M376.323 58.5338L361.703 76.6408L359.51 74.8704L374.131 56.7634L376.323 58.5338Z" fill="white"/>
<path d="M391.308 80.0684C392.017 79.1512 392.249 78.1259 392.003 76.9924C391.757 75.859 391.131 74.7986 390.126 73.8113C389.391 73.0894 388.631 72.5767 387.846 72.2731C387.066 71.9749 386.318 71.8826 385.601 71.9962C384.89 72.1152 384.274 72.4395 383.754 72.9693C383.319 73.4125 383.05 73.8971 382.947 74.423C382.856 74.9489 382.874 75.4817 383.002 76.0216C383.136 76.5561 383.32 77.0714 383.555 77.5675C383.795 78.0581 384.029 78.4953 384.258 78.8789L385.498 80.989C385.819 81.5272 386.146 82.1564 386.48 82.8765C386.818 83.602 387.061 84.3766 387.208 85.2002C387.365 86.0238 387.341 86.8597 387.134 87.708C386.928 88.5563 386.442 89.3697 385.678 90.148C384.797 91.0453 383.765 91.6252 382.584 91.8878C381.408 92.1556 380.161 92.0625 378.845 91.6084C377.534 91.1596 376.24 90.3089 374.964 89.0562C373.775 87.8885 372.934 86.6854 372.441 85.4471C371.953 84.214 371.797 83.0101 371.974 81.8353C372.156 80.6658 372.661 79.5951 373.487 78.6233L375.563 80.6616C375.001 81.3417 374.703 82.0676 374.667 82.8393C374.642 83.611 374.815 84.3755 375.186 85.1328C375.568 85.89 376.088 86.5924 376.748 87.24C377.515 87.9937 378.327 88.5462 379.182 88.8973C380.042 89.2431 380.871 89.3668 381.668 89.2684C382.471 89.1647 383.169 88.8102 383.764 88.2048C384.305 87.6534 384.592 87.0535 384.623 86.405C384.655 85.7565 384.526 85.0773 384.235 84.3675C383.945 83.6576 383.587 82.935 383.163 82.1996L381.693 79.6094C380.762 77.9625 380.258 76.4216 380.18 74.9866C380.103 73.5516 380.614 72.2746 381.712 71.1557C382.625 70.226 383.673 69.662 384.855 69.4638C386.048 69.2654 387.26 69.3937 388.491 69.8485C389.732 70.3033 390.883 71.0509 391.942 72.0912C393.012 73.1422 393.775 74.2683 394.231 75.4695C394.692 76.6653 394.842 77.8318 394.681 78.9689C394.525 80.1114 394.049 81.1148 393.253 81.9792L391.308 80.0684Z" fill="white"/>
<path d="M417.921 113.35C418.794 112.587 419.219 111.626 419.196 110.466C419.173 109.306 418.764 108.145 417.968 106.983C417.386 106.133 416.739 105.483 416.027 105.034C415.32 104.591 414.603 104.356 413.878 104.329C413.157 104.309 412.49 104.508 411.878 104.928C411.365 105.279 411.008 105.702 410.806 106.198C410.615 106.697 410.53 107.223 410.552 107.778C410.579 108.328 410.661 108.869 410.795 109.401C410.936 109.929 411.082 110.403 411.232 110.823L412.043 113.133C412.254 113.723 412.454 114.404 412.642 115.174C412.834 115.952 412.923 116.759 412.908 117.595C412.904 118.434 412.719 119.249 412.352 120.042C411.986 120.834 411.353 121.539 410.453 122.155C409.415 122.865 408.291 123.236 407.081 123.265C405.876 123.301 404.671 122.969 403.466 122.27C402.266 121.577 401.161 120.493 400.151 119.017C399.209 117.642 398.616 116.299 398.371 114.989C398.129 113.685 398.209 112.474 398.609 111.355C399.013 110.243 399.715 109.29 400.714 108.495L402.357 110.896C401.675 111.455 401.242 112.109 401.058 112.86C400.884 113.612 400.907 114.396 401.125 115.21C401.354 116.027 401.729 116.817 402.251 117.579C402.859 118.467 403.548 119.165 404.32 119.675C405.097 120.18 405.887 120.461 406.688 120.518C407.495 120.571 408.249 120.358 408.949 119.879C409.587 119.442 409.984 118.909 410.14 118.279C410.296 117.648 410.3 116.957 410.152 116.205C410.004 115.452 409.792 114.674 409.518 113.871L408.575 111.046C407.979 109.25 407.781 107.641 407.982 106.218C408.183 104.795 408.93 103.64 410.224 102.754C411.3 102.018 412.436 101.667 413.634 101.7C414.843 101.736 416.007 102.095 417.127 102.779C418.258 103.465 419.243 104.42 420.082 105.645C420.929 106.883 421.461 108.135 421.676 109.401C421.898 110.664 421.82 111.837 421.442 112.922C421.069 114.013 420.409 114.906 419.461 115.6L417.921 113.35Z" fill="white"/>
<path d="M410.263 134.083L431.044 123.606L432.313 126.122L423.059 130.788L428.645 141.868L437.899 137.203L439.168 139.719L418.387 150.197L417.118 147.68L426.413 142.994L420.826 131.914L411.532 136.6L410.263 134.083Z" fill="white"/>
<path d="M422.723 160.765L421.763 157.971L446.549 158.485L447.495 161.236L428.265 176.884L427.304 174.09L443.57 161.144L443.511 160.972L422.723 160.765ZM431.675 158.841L435.547 170.103L433.183 170.916L429.311 159.653L431.675 158.841Z" fill="white"/>
<path d="M456.234 195.588L456.781 198.353L441.665 201.343C440.104 201.652 438.638 201.56 437.266 201.066C435.903 200.579 434.737 199.74 433.768 198.55C432.806 197.357 432.148 195.866 431.794 194.075C431.44 192.284 431.48 190.654 431.916 189.186C432.359 187.716 433.117 186.492 434.19 185.515C435.272 184.545 436.594 183.905 438.154 183.596L453.27 180.606L453.817 183.371L438.924 186.317C437.809 186.537 436.866 186.979 436.093 187.641C435.328 188.302 434.786 189.135 434.468 190.14C434.158 191.151 434.129 192.292 434.38 193.563C434.632 194.834 435.093 195.878 435.764 196.695C436.443 197.511 437.261 198.075 438.219 198.387C439.185 198.706 440.226 198.755 441.341 198.534L456.234 195.588Z" fill="white"/>
<path d="M435.207 213.226L458.435 211.787L458.609 214.6L447.086 215.313L447.103 215.586L459.272 225.306L459.5 228.981L448.416 219.876L436.272 230.42L436.061 227.017L446.358 218.273L442.912 215.572L435.381 216.038L435.207 213.226Z" fill="white"/>
<path d="M459.162 242.478L435.904 241.66L436.003 238.843L459.261 239.662L459.162 242.478Z" fill="white"/>
<path d="M435.207 253.414L435.604 250.486L457.519 262.078L457.128 264.961L432.919 270.305L433.316 267.377L453.663 263.115L453.687 262.935L435.207 253.414ZM444.069 255.715L442.471 267.516L439.993 267.181L441.592 255.379L444.069 255.715Z" fill="white"/>
<path d="M427.57 291.948L449.579 299.514L447.022 306.951C446.428 308.677 445.631 309.982 444.631 310.863C443.636 311.755 442.52 312.285 441.285 312.453C440.05 312.621 438.784 312.482 437.487 312.036C436.19 311.59 435.103 310.92 434.225 310.025C433.344 309.138 432.777 308.038 432.524 306.725C432.277 305.414 432.448 303.903 433.037 302.191L434.869 296.861L437.234 297.674L435.431 302.918C435.024 304.1 434.902 305.119 435.064 305.976C435.226 306.833 435.599 307.542 436.183 308.103C436.772 308.674 437.507 309.111 438.388 309.414C439.27 309.717 440.114 309.823 440.922 309.733C441.728 309.649 442.452 309.313 443.095 308.725C443.745 308.14 444.276 307.248 444.687 306.052L446.298 301.367L426.654 294.613L427.57 291.948Z" fill="white"/>
<path d="M420.305 338.657C418.113 337.552 416.419 336.201 415.221 334.605C414.024 333.009 413.34 331.302 413.17 329.486C413 327.669 413.362 325.875 414.255 324.102C415.149 322.33 416.377 320.972 417.938 320.029C419.5 319.085 421.279 318.62 423.274 318.634C425.27 318.647 427.363 319.206 429.555 320.311C431.747 321.417 433.441 322.767 434.639 324.364C435.836 325.96 436.52 327.666 436.69 329.483C436.86 331.3 436.498 333.094 435.604 334.866C434.711 336.639 433.483 337.996 431.922 338.94C430.36 339.883 428.581 340.348 426.586 340.335C424.59 340.321 422.497 339.762 420.305 338.657ZM421.533 336.222C423.332 337.129 425.003 337.594 426.544 337.616C428.082 337.645 429.427 337.309 430.578 336.608C431.725 335.914 432.616 334.938 433.25 333.679C433.885 332.421 434.142 331.121 434.021 329.779C433.896 328.444 433.367 327.163 432.433 325.937C431.495 324.717 430.126 323.654 428.327 322.747C426.528 321.84 424.859 321.371 423.321 321.343C421.779 321.32 420.435 321.656 419.287 322.351C418.137 323.051 417.244 324.031 416.61 325.289C415.975 326.547 415.72 327.844 415.844 329.179C415.965 330.521 416.495 331.802 417.432 333.022C418.367 334.248 419.734 335.315 421.533 336.222Z" fill="white"/>
<path d="M404.745 341.84L423.915 355.035L419.457 361.513C418.426 363.01 417.324 364.064 416.151 364.672C414.984 365.286 413.798 365.518 412.594 365.37C411.39 365.222 410.223 364.759 409.094 363.981C407.964 363.204 407.122 362.284 406.566 361.22C406.01 360.157 405.811 358.977 405.969 357.678C406.134 356.384 406.727 354.994 407.749 353.509L411.357 348.267L413.454 349.711L409.897 354.878C409.193 355.901 408.776 356.828 408.646 357.658C408.511 358.494 408.622 359.242 408.978 359.901C409.336 360.57 409.899 361.169 410.666 361.697C411.434 362.226 412.203 362.544 412.975 362.652C413.747 362.76 414.505 362.607 415.251 362.191C416.003 361.78 416.736 361.056 417.449 360.02L420.258 355.939L403.147 344.161L404.745 341.84ZM407.146 356.791L395.287 355.581L397.142 352.885L408.95 354.17L407.146 356.791Z" fill="white"/>
<path d="M406.084 375.391L407.948 377.056L396.322 390.074L394.457 388.409L399.332 382.951L383.839 369.114L385.716 367.012L401.209 380.849L406.084 375.391Z" fill="white"/>
<path d="M372.224 381.1L387.578 398.588L377.092 407.795L375.442 405.916L383.811 398.569L378.623 392.66L371.04 399.317L369.39 397.439L376.974 390.781L370.106 382.959L372.224 381.1Z" fill="white"/>
<path d="M344.385 416.855C343.02 414.815 342.209 412.805 341.952 410.826C341.695 408.847 341.939 407.025 342.684 405.36C343.43 403.695 344.628 402.311 346.278 401.207C347.927 400.104 349.664 399.525 351.488 399.472C353.312 399.419 355.089 399.889 356.82 400.882C358.55 401.876 360.098 403.393 361.462 405.433C362.827 407.473 363.638 409.483 363.895 411.462C364.152 413.441 363.908 415.263 363.163 416.928C362.417 418.593 361.219 419.977 359.57 421.081C357.92 422.184 356.183 422.763 354.359 422.816C352.536 422.869 350.758 422.399 349.028 421.405C347.297 420.412 345.749 418.895 344.385 416.855ZM346.652 415.339C347.772 417.014 348.998 418.24 350.329 419.018C351.654 419.799 352.99 420.168 354.336 420.124C355.677 420.084 356.933 419.673 358.104 418.889C359.275 418.106 360.138 417.1 360.693 415.873C361.242 414.649 361.411 413.273 361.201 411.746C360.984 410.223 360.316 408.624 359.196 406.949C358.075 405.274 356.853 404.046 355.528 403.264C354.197 402.486 352.861 402.118 351.52 402.157C350.173 402.201 348.914 402.615 347.743 403.399C346.572 404.182 345.712 405.185 345.163 406.409C344.608 407.637 344.439 409.012 344.656 410.535C344.866 412.063 345.531 413.664 346.652 415.339Z" fill="white"/>
<path d="M329.225 411.938L339.577 432.782L337.053 434.036L327.813 415.431L318.124 420.243L317.012 418.004L329.225 411.938Z" fill="white"/>
<path d="M314.458 444.128L306.017 422.44L308.643 421.418L317.084 443.106L314.458 444.128Z" fill="white"/>
<path d="M279.995 442.609C279.354 440.24 279.227 438.077 279.615 436.119C280.004 434.162 280.817 432.513 282.055 431.173C283.294 429.833 284.871 428.904 286.787 428.385C288.702 427.867 290.533 427.873 292.278 428.405C294.023 428.937 295.557 429.951 296.88 431.445C298.203 432.939 299.185 434.87 299.827 437.24C300.468 439.609 300.595 441.772 300.206 443.73C299.818 445.687 299.005 447.336 297.766 448.676C296.528 450.015 294.951 450.945 293.035 451.463C291.119 451.982 289.289 451.976 287.544 451.443C285.798 450.911 284.264 449.898 282.942 448.404C281.619 446.91 280.637 444.978 279.995 442.609ZM282.628 441.896C283.154 443.842 283.924 445.395 284.937 446.557C285.943 447.721 287.091 448.497 288.382 448.886C289.664 449.276 290.986 449.287 292.346 448.919C293.706 448.55 294.845 447.873 295.763 446.887C296.674 445.902 297.274 444.653 297.562 443.139C297.843 441.626 297.721 439.898 297.194 437.952C296.667 436.007 295.901 434.453 294.895 433.289C293.882 432.127 292.734 431.351 291.451 430.96C290.161 430.572 288.836 430.562 287.476 430.93C286.115 431.298 284.98 431.975 284.069 432.959C283.151 433.945 282.552 435.195 282.27 436.707C281.982 438.222 282.101 439.951 282.628 441.896Z" fill="white"/>
<path d="M244.773 446.806L244.585 444.313L254.738 443.548L254.926 446.041L244.773 446.806Z" fill="white"/>
</svg>
